/* XPM */
static char *bco__[] = {
/* columns rows colors chars-per-pixel */
"16 16 131 2 ",
"   c #F88808",
".  c #F9890A",
"X  c #F98A0D",
"o  c #F88A0E",
"O  c #F98A0E",
"+  c #F98B0F",
"@  c #F98C10",
"#  c #F98C11",
"$  c #F98C12",
"%  c #F98D13",
"&  c #F98D14",
"*  c #F98E16",
"=  c #F98F17",
"-  c #FF9413",
";  c #FD9116",
":  c #FF9416",
">  c #F99018",
",  c #F99019",
"<  c #F8901A",
"1  c #F9901A",
"2  c #F9911B",
"3  c #FD9219",
"4  c #FD931B",
"5  c #FF9718",
"6  c #FF951A",
"7  c #FF961A",
"8  c #F9911D",
"9  c #F9921D",
"0  c #F9921F",
"q  c #F9931F",
"w  c #FF981B",
"e  c #FF981E",
"r  c #FF981F",
"t  c #F99320",
"y  c #FA9320",
"u  c #F99421",
"i  c #FA9420",
"p  c #FA9422",
"a  c #FA9522",
"s  c #FE9620",
"d  c #F99525",
"f  c #FA9626",
"g  c #FF9920",
"h  c #FF9921",
"j  c #FF9A20",
"k  c #FF9B23",
"l  c #FF9C23",
"z  c #F99728",
"x  c #F99729",
"c  c #F9982A",
"v  c #FF9F2C",
"b  c #F99C33",
"n  c #F99E37",
"m  c #F99F39",
"M  c #FFA72E",
"N  c #FFA433",
"B  c #FEA33B",
"V  c #F9A13D",
"C  c #FAA23E",
"Z  c #FAA23F",
"A  c #FFA53C",
"S  c #FFAC3E",
"D  c #F9A341",
"F  c #FAA443",
"G  c #F9A444",
"H  c #FAA545",
"J  c #FEA745",
"K  c #FFAD47",
"L  c #FAA74A",
"P  c #FFA949",
"I  c #FAAB51",
"U  c #FAAB53",
"Y  c #FBAD56",
"T  c #FAB05C",
"R  c #FAB15E",
"E  c #FBB15E",
"W  c #FFB65E",
"Q  c #FAB262",
"!  c #FFB562",
"~  c #FFB867",
"^  c #FAB669",
"/  c #FBB76C",
"(  c #FBBA72",
")  c #FBBD77",
"_  c #FBBE7A",
"`  c #FCBE79",
"'  c #FBC17F",
"]  c #FBC383",
"[  c #FBC68A",
"{  c #FBC88D",
"}  c #FFD18A",
"|  c #FCCA91",
" . c #FCCB94",
".. c #FDCE99",
"X. c #FCCE9A",
"o. c #FCCF9C",
"O. c #FDD2A1",
"+. c #FCD4A7",
"@. c #FCD7AE",
"#. c #FFDBAB",
"$. c #FED8AC",
"%. c #FDD8AF",
"&. c #FCDAB4",
"*. c #FDDDBA",
"=. c #FDDEBD",
"-. c #FFE4BE",
";. c #FDE1C2",
":. c #FDE2C3",
">. c #FEE4C7",
",. c #FDE4C8",
"<. c #FDE5C9",
"1. c #FFE6C9",
"2. c #FEE6CB",
"3. c #FDE6CD",
"4. c #FEE7CD",
"5. c #FDE8D1",
"6. c #FEE9D1",
"7. c #FDEAD5",
"8. c #FDEDDA",
"9. c #FEEDDB",
"0. c #FEEEDD",
"q. c #FEF1E2",
"w. c #FEF4EA",
"e. c #FEF8F1",
"r. c #FEF9F3",
"t. c #FFFAF5",
"y. c #FEFBF6",
"u. c #FEFDFB",
"i. c #FEFEFE",
"p. c gray100",
"a. c None",
/* pixels */
"a.a.a.a.a.a.a.a.a.a.a.a.a.a.a.a.",
"a.a.t K v r k k e k k e A S 2 a.",
"a.= N p.` . = u x = = O 1.1.O a.",
"a.a.k U d C +.0.q.,.` < D J 2 a.",
"a.a.l . T u.p.e.y.p.p.=.8 ; t a.",
"a.a.w C y.p.;.Q T w.p.p.O.; u a.",
"a.a.- ..p.e.^ n [ D 7.p.y.B 2 a.",
"a.a.5 4.p.p.&.C *.d 5.p.p.! $ a.",
"a.a.w 5.p.p.*.b &.H  .p.p.~ # a.",
"a.a.- %.p.p.' m 5.m { p.p.P = a.",
"a.a.: Y p.r.X.G H ( / 4.1.4 8 a.",
"a.a.k < | p.p.1.8.] 1.| x 4 u a.",
"a.a.k + = ) 9.p.p.@.] p...e t a.",
"a.2 v ;.T   d L U D = ..p.$.# a.",
"a.a.M -.W 5 k : : 5 r r #.} = a.",
"a.a.2 O = q u u u t u u O $ a.a."
};
