/* XPM */
static char *bco__[] = {
/* columns rows colors chars-per-pixel */
"32 32 182 2 ",
"   c #F88707",
".  c #F8880A",
"X  c #F8880B",
"o  c #F8890C",
"O  c #F88A0E",
"+  c #F88C11",
"@  c #F88C12",
"#  c #F98C12",
"$  c #F88C13",
"%  c #F88D13",
"&  c #F88D14",
"*  c #F88D15",
"=  c #F98E14",
"-  c #F98E16",
";  c #F88E17",
":  c #F88F17",
">  c #F98F17",
",  c #F88F19",
"<  c #FF9012",
"1  c #FF9114",
"2  c #FF9314",
"3  c #FF9414",
"4  c #F99019",
"5  c #F8901B",
"6  c #F8911B",
"7  c #FF9618",
"8  c #FF941B",
"9  c #FF971A",
"0  c #F8911C",
"q  c #F9911C",
"w  c #F8911D",
"e  c #F9921D",
"r  c #F9921E",
"t  c #F8921F",
"y  c #F9921F",
"u  c #F9931F",
"i  c #FB931E",
"p  c #FA931F",
"a  c #FF951D",
"s  c #FF971F",
"d  c #FF981D",
"f  c #FF991E",
"g  c #F99320",
"h  c #F99321",
"j  c #FA9320",
"k  c #F99421",
"l  c #FA9421",
"z  c #F99422",
"x  c #F99423",
"c  c #F99523",
"v  c #FB9522",
"b  c #FA9523",
"n  c #FF9721",
"m  c #F99424",
"M  c #F99524",
"N  c #FA9524",
"B  c #F99626",
"V  c #FF9821",
"C  c #FF9921",
"Z  c #FF9A21",
"A  c #FF9B21",
"S  c #FF9923",
"D  c #FF9A22",
"F  c #FF9B22",
"G  c #FF9B23",
"H  c #FF9C21",
"J  c #FF9C22",
"K  c #FF9F23",
"L  c #FF9A24",
"P  c #FF9B24",
"I  c #F99728",
"U  c #F9972A",
"Y  c #F9992E",
"T  c #F99A2E",
"R  c #F99A2F",
"E  c #FA9A2E",
"W  c #F99A30",
"Q  c #F99B31",
"!  c #F99C32",
"~  c #F99C35",
"^  c #F99D35",
"/  c #FA9D34",
"(  c #F99E37",
")  c #F99F38",
"_  c #F99F3A",
"`  c #FFA023",
"'  c #F9A03B",
"]  c #FAA23E",
"[  c #F9A240",
"{  c #F9A341",
"}  c #F9A342",
"|  c #F9A443",
" . c #FAA442",
".. c #FAA444",
"X. c #FAA546",
"o. c #FAA648",
"O. c #FAA84B",
"+. c #FAA94E",
"@. c #FBAA50",
"#. c #FAAA52",
"$. c #FBAC53",
"%. c #FAAC55",
"&. c #FAAD56",
"*. c #FAAD58",
"=. c #FAAE59",
"-. c #FAB05C",
";. c #FBB05C",
":. c #FAB15E",
">. c #FAB260",
",. c #FAB363",
"<. c #FAB464",
"1. c #FAB76A",
"2. c #FBB96E",
"3. c #FBB96F",
"4. c #FCBA71",
"5. c #FBBB74",
"6. c #FBBD77",
"7. c #FCBC75",
"8. c #FBBE7A",
"9. c #FBBF7B",
"0. c #FBC07D",
"q. c #FBC181",
"w. c #FBC385",
"e. c #FBC485",
"r. c #FBC588",
"t. c #FBC68A",
"y. c #FBC890",
"u. c #FCCA92",
"i. c #FCCB95",
"p. c #FCCC97",
"a. c #FCCD99",
"s. c #FCCE9A",
"d. c #FCCF9C",
"f. c #FCCF9D",
"g. c #FCD1A1",
"h. c #FCD2A2",
"j. c #FCD3A5",
"k. c #FCD5AA",
"l. c #FCD7AE",
"z. c #FDD9B1",
"x. c #FCD9B2",
"c. c #FDDBB6",
"v. c #FDDDB9",
"b. c #FDDEBB",
"n. c #FDDEBC",
"m. c #FDDFBE",
"M. c #FDE0BF",
"N. c #FDE1C1",
"B. c #FDE3C7",
"V. c #FDE4C8",
"C. c #FDE5CB",
"Z. c #FDE6CD",
"A. c #FDE7CE",
"S. c #FDE7CF",
"D. c #FDE9D1",
"F. c #FDE9D2",
"G. c #FEEAD4",
"H. c #FDEBD7",
"J. c #FDECD8",
"K. c #FEEEDD",
"L. c #FEF0E0",
"P. c #FEF1E3",
"I. c #FEF1E4",
"U. c #FEF4E8",
"Y. c #FEF5EB",
"T. c #FEF6EC",
"R. c #FEF6ED",
"E. c #FFF8F0",
"W. c #FEF8F1",
"Q. c #FEF9F3",
"!. c #FEF9F4",
"~. c #FEFAF5",
"^. c #FEFBF6",
"/. c #FFFCF8",
"(. c #FEFCF9",
"). c #FEFCFA",
"_. c #FEFDFB",
"`. c #FEFDFC",
"'. c #FEFEFD",
"]. c #FEFEFE",
"[. c gray100",
"{. c None",
/* pixels */
"{.{.{.{.{.{.{.{.{.{.{.{.{.{.{.{.{.{.{.{.{.{.{.{.{.{.{.{.{.{.{.{.",
"{.{.{.{.{.g c c g u g g g g g u g g g g g g g u g c c p {.{.{.{.",
"{.{.{.u ` s 1 < s s s n n n n n n n n n n n n n s < < V u {.{.{.",
"{.{.{.g u N s.z./ 5 c c g g c g g c g g u u c , [ v.t.u J c {.{.",
"{.{.{.L # 4.[.[.g.% z t z z 0 * > 5 0 N g g g @ N.[.[.&.3 c {.{.",
"{.{.{.V > $.[.[.0.* z 0 * * R [ | _ g # 5 g m @ p.[.W.] 9 c {.{.",
"{.{.{.V g 5 O.*.t z % U 5.M.P.Q.^.T.H.g.+.* 0 u g >.[ , V u {.{.",
"{.{.{.n u u * > 0 * <.L.[.[.[.[.[.[.[.[.[.l.Q 5 g > > c J g {.{.",
"{.{.{.V g g g g 5 y.[.[.`.`.[.[.[.[.`.`.[.[.I.| * N g g V c {.{.",
"{.{.{.V g g m * t.[.[.).`.^.a.H.g.G.[.`.`.).[.Y._ 5 g g V c {.{.",
"{.{.{.V g g > *.[.[.).[.[.(.z c.] l.[.`.`.[.).[.B.5 g g V g {.{.",
"{.{.{.V g u u A.[.).[.B.9.w.U >.B 1.B.`.[.`.[.).[.2.@ g V g {.{.",
"{.{.{.V c > *.[.[.).[.x.( 0 5 ( X.0 O >.^.[.[.).[.A.5 c J u {.{.",
"{.{.{.V g # d.[.`.[.`.[.[.o.. m.[.m.B   c.[.).[.[.).[ * J c {.{.",
"{.{.{.V c , V.[.`.`.`.[.^.o.  V.[.S.z z Z.[.).[.).[.<.# L j {.{.",
"{.{.{.V g g H.[.`.`.`.[.(.| * ] O.B O >.[.[.[.[.[.[.9.# P g {.{.",
"{.{.{.V u c H.[.`.`.`.[.(.X.% <.e.2.R * 0.[.`.`.`.[.9.% V c {.{.",
"{.{.{.V g > C.[.`.`.`.[.^.X.  Z.[.[.i.. _ Q.[.`.`.[.,.% P z {.{.",
"{.{.{.V c # g.[.`.[.`.[.[.o.. v.[.Y.<.O [ (.`.[.[.(.X.5 V g {.{.",
"{.{.{.n g > ;.[.`.`.[.V.( 0 5 R X.U O t v.[.`.).[.Z.0 z J g {.{.",
"{.{.{.V g u g H.[.(.[.S.4.0.U >.U *.f.4.*.t.[.[.[.9.% c V u {.{.",
"{.{.{.V u c * >.[.`.`.[.[.(.z c.( v.N.z 5.! [ W.D.0 0 p J c {.{.",
"{.{.{.V c u z * p.[.`.`.`.^.t.S.u.K.*.5.[.W.#.R [ 0 c p V j {.{.",
"{.{.{.V t z t 0 5 f.[.[.(.[.[.[.[.[.t.R W.[.[.0.@ 0 c p V g {.{.",
"{.{.{.V p p c c g * 5.Y.[.[.[.[.).[.[.#.%.[.[.[.k.0 5 g V u {.{.",
"{.{.{.V c 5 % % 0 g % Q w.A.Y.[.[.^.U.a.. q.[.).[.A.~ 5 V c {.{.",
"{.{.{.V u U j.v._ 5 N 5 % 5 _ O.O.[ U 5 c % j.[.^.[.K.Y d g {.{.",
"{.{.{.L # 5.[.[.j.@ c g g g 5 * * 5 t g g 0 u B.[.^.[.-.1 c {.{.",
"{.{.{.c > +.^.[.4.* c g u g g c c g g g u c 5 Q J.[.G.E d c {.{.",
"{.{.{.c V 5 | +.u u u g g g u u u u g g u u g 5 Y ;.E 5 ` {.{.{.",
"{.{.{.{.p J 3 9 J J J V V J J J J V V J J J J J d 3 d V u {.{.{.",
"{.{.{.{.{.{.{.{.{.{.{.{.{.{.{.{.{.{.{.{.{.{.{.{.{.{.{.{.{.{.{.{."
};
