/* XPM */
static char *bco__[] = {
/* columns rows colors chars-per-pixel */
"64 64 177 2 ",
"   c #F88300",
".  c #F88605",
"X  c #F88708",
"o  c #F8880A",
"O  c #F88A0E",
"+  c #F88B10",
"@  c #F88B11",
"#  c #F88C11",
"$  c #F88C12",
"%  c #F88C13",
"&  c #F88D13",
"*  c #F88D14",
"=  c #F88D15",
"-  c #F88E15",
";  c #F88E17",
":  c #F88F17",
">  c #F88F18",
",  c #F88F19",
"<  c #F89019",
"1  c #F8901B",
"2  c #F8911B",
"3  c #F8911C",
"4  c #F8911D",
"5  c #F8911E",
"6  c #F8921E",
"7  c #F9921E",
"8  c #F8921F",
"9  c #F9921F",
"0  c #F8931F",
"q  c #F9931F",
"w  c #F89220",
"e  c #F99320",
"r  c #F99321",
"t  c #FA9320",
"y  c #F99322",
"u  c #F99421",
"i  c #FA9420",
"p  c #FB9420",
"a  c #FA9421",
"s  c #F99422",
"d  c #F99423",
"f  c #F99523",
"g  c #FA9422",
"h  c #FC9420",
"j  c #FC9520",
"k  c #FF9720",
"l  c #F99524",
"z  c #F99525",
"x  c #F99627",
"c  c #FF9821",
"v  c #FF9921",
"b  c #FF9A21",
"n  c #FF9B21",
"m  c #FF9C22",
"M  c #FF9E22",
"N  c #F99729",
"B  c #F9982B",
"V  c #F9992D",
"C  c #F99A2F",
"Z  c #F99B30",
"A  c #F99C32",
"S  c #F99C34",
"D  c #F99D35",
"F  c #F99E37",
"G  c #F99E38",
"H  c #F99E39",
"J  c #F9A03B",
"K  c #F9A13E",
"L  c #F9A240",
"P  c #FAA341",
"I  c #FAA342",
"U  c #FAA444",
"Y  c #FAA546",
"T  c #FAA547",
"R  c #FAA648",
"E  c #FAA749",
"W  c #FAA74A",
"Q  c #FAA74B",
"!  c #FAA84E",
"~  c #FAAA51",
"^  c #FAAB53",
"/  c #FAAC54",
"(  c #FAAD56",
")  c #FAAE5A",
"_  c #FAB05B",
"`  c #FAB05D",
"'  c #FAB260",
"]  c #FAB363",
"[  c #FAB567",
"{  c #FBB669",
"}  c #FBB76C",
"|  c #FBB86F",
" . c #FBBA72",
".. c #FBBC75",
"X. c #FBBC76",
"o. c #FBBD78",
"O. c #FBBE7A",
"+. c #FBBF7C",
"@. c #FBC180",
"#. c #FBC383",
"$. c #FBC385",
"%. c #FBC588",
"&. c #FBC68B",
"*. c #FBC78C",
"=. c #FCC88E",
"-. c #FCC991",
";. c #FCCB93",
":. c #FCCE99",
">. c #FCCE9B",
",. c #FCD09E",
"<. c #FCD09F",
"1. c #FCD2A1",
"2. c #FCD2A4",
"3. c #FCD4A6",
"4. c #FCD6AA",
"5. c #FCD6AC",
"6. c #FCD7AE",
"7. c #FCD8AF",
"8. c #FCD9B2",
"9. c #FDDAB4",
"0. c #FDDBB5",
"q. c #FDDBB6",
"w. c #FDDCB7",
"e. c #FDDBB8",
"r. c #FDDDBA",
"t. c #FDDEBB",
"y. c #FDDEBC",
"u. c #FDDFBD",
"i. c #FDE0BF",
"p. c #FDE1C1",
"a. c #FDE1C3",
"s. c #FDE3C6",
"d. c #FDE4C8",
"f. c #FDE5CA",
"g. c #FDE5CB",
"h. c #FDE7CD",
"j. c #FDE7CE",
"k. c #FDE8D1",
"l. c #FDE9D3",
"z. c #FDEAD5",
"x. c #FDECD8",
"c. c #FEECD9",
"v. c #FEEDDA",
"b. c #FEEDDB",
"n. c #FEEEDE",
"m. c #FEEFDE",
"M. c #FEF0E1",
"N. c #FEF1E3",
"B. c #FEF2E5",
"V. c #FEF2E6",
"C. c #FEF4E8",
"Z. c #FEF5EA",
"A. c #FEF4EB",
"S. c #FEF6ED",
"D. c #FEF6EF",
"F. c #FEF8F0",
"G. c #FEF8F2",
"H. c #FEF9F3",
"J. c #FEF9F5",
"K. c #FEFBF6",
"L. c #FEFBF8",
"P. c #FEFCF9",
"I. c #FEFCFA",
"U. c #FEFDFA",
"Y. c #FEFDFB",
"T. c #FEFDFC",
"R. c #FEFDFD",
"E. c #FEFEFC",
"W. c #FEFEFD",
"Q. c #FFFEFD",
"!. c #FEFEFE",
"~. c #FFFEFE",
"^. c #FFFFFE",
"/. c #FFFEFF",
"(. c #FEFFFF",
"). c gray100",
"_. c None",
/* pixels */
"_._._._._._._._._._._._._._._._._._._._._._._._._._._._._._._._._._._._._._._._._._._._._._._._._._._._._._._._._._._._._._._._.",
"_._._._._._._._._._._._._._._._._._._._._._._._._._._._._._._._._._._._._._._._._._._._._._._._._._._._._._._._._._._._._._._._.",
"_._._._._._._._._.t t t 0 t t t t 0 0 t t t t 0 t t d t t 0 d 0 t t t 0 0 t t t 0 t t 0 t t t 0 t t d t i t i _._._._._._._._._.",
"_._._._._._._._.t m k i i i i i t t t t i i i i i i i t t t t t i i i i l i i i t t t t i i i i i i i t i i v v t _._._._._._._.",
"_._._._._._._.i k t t t i d d d 0 t 0 t t 0 0 t 0 t 0 t 0 t 0 t t 0 0 t t t 0 t t 0 d t t t t 0 0 t t l t t 0 t m t _._._._._._.",
"_._._._._._.i c 0 0 t i ; @ O ; t w w w 0 t d 0 t 0 t d d 0 t 0 0 t d 0 t 0 t 0 0 t w t 0 w 0 w 0 , @ @ ; 0 t t i m _._._._._._.",
"_._._._._._.c i t 0 t ; ` 6.4./ ; 0 w t t 0 0 t 0 0 t 0 t 0 t t t 0 0 t t 0 0 d t 0 0 t t 0 0 t , K ,.9.X.0 1 t i v t _._._._._.",
"_._._._._.t c i 0 i & o.(.(.(.(.{ = t w w d t 0 d t 0 t 0 t 0 d t d t d 0 t 0 t d 0 t 0 t w t , U G.(.(.(.3., t t i t _._._._._.",
"_._._._._.0 c 0 i 0 N V.(.L.L.(.z.t w 0 t 0 0 t t 0 0 t 0 t t t w 0 t 0 t 0 t t 0 0 t 0 d w d @ 6.(.L.Y.(.(.W ; z 0 k _._._._._.",
"_._._._._.t m t t , K G.(.(.(.(.A.D 4 t 0 t t w 0 t 0 0 d t d t d t d d t t 0 0 0 t 0 t 0 t d = f.(.(.(.L.(.' @ y t k _._._._._.",
"_._._._._.t v l 0 0 t z.(.L.L.(.f., 0 t t w t w t y t 0 , ; @ % @ = = = , t d t 0 w d w 0 0 d @ -.(.L.Y.(.L.K , d 0 k _._._._._.",
"_._._._._.t v 0 0 d ; ~ S.(.(.V.U , d w 0 w t y 4 ; @ l I ) ..#.$.@.} ~ G , @ , t t t w t 0 t 4 B a.(.(.(.o.; y 0 t c _._._._._.",
"_._._._._.t v t t w t ; A | | B , t w 0 t i 1 @ N ' 5.b.L.(.(.(.(.(.(.(.S.f.=.U ; = t t 0 t 4 0 1 l ' X.U ; t t t t c _._._._._.",
"_._._._._.t v i w 0 0 d 1 & & 1 d 0 4 0 t @ B %.N.(.(.(.(.T.T.T.T.T.L.(.(.(.(.(.i.` , , d 0 w w t 1 ; & , d 0 0 0 t c _._._._._.",
"_._._._._.t k t 0 t 0 0 d 0 t t 0 0 i 1 ;  .V.(.(.T.T.(.(.T.(.(.(.(.(.T.(.T.L.(.(.(.u.H = t 0 w 0 t t t t 0 0 0 t 0 c _._._._._.",
"_._._._._.0 v 0 t 0 t 0 t t t t 0 i ; C 9.(.(.L.T.(.(.T.T.(.(.(.(.(.(.(.(.T.(.(.T.T.(.K.X.= w t 0 0 t t 0 t d t 0 t c _._._._._.",
"_._._._._.t c i 0 t 0 0 t w 0 w d = I n.(.T.(.(.(.Y.(.(.L.T.(.(.T.L.(.(.T.(.(.(.(.(.L.(.(.<., 1 0 0 0 t 0 t 0 0 t 0 c _._._._._.",
"_._._._._.t c d t 0 d t 0 t w y = T S.(.L.(.(.(.(.(.(.(.(.(.(.(.(.(.(.(.(.(.(.(.T.(.(.(.(.(.7., 0 t w 0 t 0 d t 0 t c _._._._._.",
"_._._._._.0 m 0 d t t 0 t w d , H A.(.T.(.(.T.(.(.(.(.H.f.a.G.L.j.a.A.(.(.T.(.(.(.(.T.(.(.L.(.2.= d t 0 w t d 0 d t k _._._._._.",
"_._._._._.d c t 0 t 0 t w 0 w t k.(.L.(.T.(.(.(.(.(.(.j.; . r.A.i . <.(.L.(.(.(.(.(.(.(.(.(.T.(.+.= d w t 0 t t w t g _._._._._.",
"_._._._._.t c i 0 t 0 0 1 t @ :.(.L.(.T.(.(.(.T.(.L.(.j.0 @ r.A.C @ <.(.L.(.(.(.(.(.(.(.T.(.(.(.T.T ; t 0 0 t 0 t t c _._._._._.",
"_._._._._.i b d t 0 t 0 l ; ! (.(.T.(.(.(.T.(.(.(.(.(.c.t O s.K.B O 2.(.T.T.(.(.(.T.(.(.(.(.(.L.(.a., t t t 0 t 0 t c _._._._._.",
"_._._._._.t b 0 0 t t t t , p.(.L.(.T.(.(.(.G.a.p.u.a.,.0 ; =.8.l ; #.V.L.(.(.T.(.(.(.(.(.(.(.T.T.(.[ @ y 0 t 0 t 0 c _._._._._.",
"_._._._._.i m 1 t 0 0 t ; ( (.(.(.(.(.(.(.(.c.5 @ ; $ ; 0 0 ; ; t t 1 B U #.N.(.T.(.T.(.(.(.T.(.T.(.j.5 0 0 0 t 0 t c _._._._._.",
"_._._._._.t c t 0 0 0 t % 7.(.L.(.(.(.(.T.(.c.1 @ , t i t t , ; ; @ 1 1 1 & B t.(.T.(.(.(.(.(.(.(.(.(./ ; y t 0 d t c _._._._._.",
"_._._._._.t m t t 0 0 , Z S.(.(.(.(.(.(.(.(.G.u.a.-.0 t t ,  .,.-.+.K , i l ; B V.(.(.(.(.(.(.(.(.L.(.3.@ y 0 t t 0 c _._._._._.",
"_._._._._.t c 0 0 t l ; ' (.L.(.(.(.(.(.(.T.(.(.(.G.Z 4 l O u.(.(.(.(.` ; t i & 4.(.L.(.(.(.(.(.(.T.(.c.y 0 t 0 0 d k _._._._._.",
"_._._._._.t m t t 0 d @ :.(.(.(.(.(.(.(.(.(.(.L.(.N.Z 4 i @ 8.(.L.L.(.u.@ l i @ :.(.(.Y.(.(.(.(.T.(.(.(.U ; d 0 t 0 g _._._._._.",
"_._._._._.t m 0 0 t d = a.(.Y.(.(.(.(.(.(.T.(.(.(.V.Z 1 i & 9.(.Y.Y.(.,.@ l t ; u.(.(.(.(.(.(.(.(.(.T.(.[ ; 0 0 i i c _._._._._.",
"_._._._._.t c t t 0 0 d c.(.Y.(.(.(.(.(.(.(.(.(.(.V.A 1 l O t.(.(.(.l.D , l @ ~ (.(.(.(.(.(.(.(.(.(.T.(.$.@ t 0 0 i c _._._._._.",
"_._._._._.t c 0 0 0 0 Z V.(.(.(.(.(.(.(.(.(.(.L.(.V.C 1 t 0 U ( ~ ~ B : d , K G.(.L.(.(.(.(.(.(.(.T.T.(.:.@ y 0 t 0 c _._._._._.",
"_._._._._.t m t t y , D A.(.Y.(.(.(.(.(.(.(.(.(.(.N.C 1 t t @ X X X $ d d 0 B X.G.(.T.(.(.(.(.(.(.(.T.(.3.; y t 0 t c _._._._._.",
"_._._._._.0 c 0 t 0 , D A.(.(.(.(.(.(.(.(.(.(.Y.(.V.A 1 t 1 I ( ~ ( I 1 ; i 1 O ~ L.(.(.(.(.(.(.(.(.T.(.2.@ t 0 0 t c _._._._._.",
"_._._._._.t m d 0 t 0 C N.(.L.(.(.(.(.(.(.(.(.(.(.V.Z 1 l O t.(.(.(.Y.j.W , t l O 1.(.(.(.(.(.(.(.L.T.(.;.@ z 0 t 0 c _._._._._.",
"_._._._._.t v i t 0 t t k.(.T.(.(.(.(.(.(.(.(.Y.(.N.Z 1 l @ 9.(.Y.Y.(.(.g.4 t l ; | (.(.(.(.(.(.(.(.T.(.+.@ t w 0 t k _._._._._.",
"_._._._._.t v 0 t 0 i @ 9.(.T.T.(.(.(.(.(.(.(.(.(.V.Z 1 l @ 9.(.L.(.K.(.x.t 0 t % { (.Y.(.(.(.(.(.(.T.(.` = d 0 t 0 g _._._._._.",
"_._._._._.t v t 0 w d @ %.(.T.(.(.(.(.(.(.(.(.L.(.V.A 1 l @ t.(.(.(.(.(.&.@ 0 d @ #.(.Y.(.(.(.(.(.L.(.G.G , d t t t c _._._._._.",
"_._._._._.t v i t 0 d = ~ (.(.(.Y.(.(.(.(.(.(.(.(.c.B 1 i $ 3.S.N.N.z.$.0 0 t d @ u.(.(.(.(.(.(.(.(.(.j., t 0 t 0 i c _._._._._.",
"_._._._._.t k 0 t w t 0 d b.(.(.(.(.(.(.(.Y.(...~ K 1 i t 0 C Z C C 0 ; t 0 y o ) (.Y.Y.(.(.(.Y.(.L.(.%.@ t 0 0 t 0 c _._._._._.",
"_._._._._.t v t 0 0 0 y @ =.(.T.(.(.(.(.(.(.Y.A   & ; 1 t 1 ; & , 1 , , ; @ ; } (.(.(.(.Y.(.(.(.T.(.L.K , t t t 0 t c _._._._._.",
"_._._._._.t c i 0 t 0 d , H G.(.T.(.(.(.T.(.K.[ I W W H t 1 K U l 1 G ! ~ #.8.1.....4.L.(.Y.(.(.T.(.6.= y t t 0 d t g _._._._._.",
"_._._._._.t c d t 0 w w d = :.(.L.(.(.(.(.(.(.T.(.T.(.k.1 @ u.S.B O 1.(.(.N.W @ X X @ T c.(.Y.(.(.T.T ; y w 0 t t 0 v _._._._._.",
"_._._._._.0 m 0 t t t 0 t 4 C A.(.L.(.(.T.(.(.T.(.T.(.k.l @ u.C.C & 1.(.S.G O 1 ! W 5 @ B 9.(.L.(.:.= t 0 0 t 0 0 d k _._._._._.",
"_._._._._.d c t w d 0 t 0 d @ { (.(.(.(.(.(.T.(.(.L.(.j.; . t.C.1 . :.(.1.@ t <.(.(.1.t ; 1 ;.(.b.d 4 d w w 0 t t 0 v _._._._._.",
"_._._._._.t c i 0 d w 0 t 0 t = :.(.Y.(.(.(.(.(.(.T.(.c.U D f.A.! G 6.(.| X ! (.(.(.(.a.D ; & ..~ ; t 0 0 t 0 d t i c _._._._._.",
"_._._._._.i b d t 0 t t w 0 0 0 , 8.(.Y.T.(.T.(.(.(.(.(.(.(.(.(.(.(.(.(.o.o W (.(.Y.Y.(.V.! & ; , t 0 t t d t 0 t i c _._._._._.",
"_._._._._.t b 0 0 t d 0 t 0 0 0 1 1 9.(.L.(.(.(.T.(.(.T.(.(.T.(.(.(.L.(.4.@ 1 1.(.L.(.Y.(.(.| & d 0 0 t 0 0 t d 0 t c _._._._._.",
"_._._._._.i m 1 t t w t 0 t t t t t , <.(.(.T.T.(.(.(.(.T.(.(.(.(.(.(.(.Y.W & 1 a.(.Y.(.Y.(.(.-., 4 y w t 0 0 0 t 0 c _._._._._.",
"_._._._._.t c t 0 t d t 0 0 t 0 w t w = } A.(.(.L.(.(.(.(.(.(.(.(.(.(.L.(.n.B @ B N.(.T.(.(.(.(.r.d , d 0 0 t t 0 t g _._._._._.",
"_._._._._.t m t t 0 0 0 0 t t w 0 w 0 d @ D 3.L.(.(.T.L.Y.(.Y.(.(.(.(.(.K.(.a.B % W L.(.Y.(.(.L.T.c.K @ l 0 0 0 t 0 v _._._._._.",
"_._._._._.t c 0 0 0 0 t y y y y t w 0 0 d 4 @ U <.V.(.(.(.(.(.(.(.(.(.(.(.(.(.X., ; [ (.(.(.(.(.(.(.G.` @ t t t 0 d k _._._._._.",
"_._._._._.t m t t 0 t 0 = = = = 0 t w t 0 t 0 , @ B ` :.a.n.S.L.L.G.A.z.9.@.U d 1 t O =.(.L.(.(.(.L.(.(.@., 0 t t 0 k _._._._._.",
"_._._._._.t m 0 t t 1 1 X.a.a.} , t 0 0 t w w 0 t 1 = @ ; B G I I H D t = @ ; 0 t t 0 ; 8.(.T.(.(.(.L.(.(.%.; t t t c _._._._._.",
"_._._._._.t c t 0 i ; %.(.(.(.(.o.= t 0 t 0 t t t t d d t 4 , , ; , , t d 0 t 0 t 0 t 0 d l.(.L.(.(.(.T.(.T.G , i i c _._._._._.",
"_._._._._.t c 0 t 0 C V.(.L.Y.(.n.d w t 0 t 0 d t 0 0 0 0 t 0 d d d t t w w t w 0 t 0 0 , G A.(.L.(.(.(.L.(.' @ z 0 c _._._._._.",
"_._._._._.t m t t , K H.(.(.(.(.A.Z 4 w d 0 t 0 0 t t 0 t 0 t 0 t 0 t 0 t d 0 0 t 0 t 0 d % / (.(.T.(.(.(.(./ ; d t c _._._._._.",
"_._._._._.i c t t 0 0 f.(.L.L.(.u., t t 0 t 0 t 0 t d 0 0 t 0 t 0 t t 0 d t 0 t t 0 t 0 0 l @ o.(.(.Y.(.(.j.0 t 0 t i _._._._._.",
"_._._._._._.m 0 t t , I z.(.(.l.G , 0 0 t 0 t d t 0 t t t 0 t 0 t 0 0 t t 0 d 0 0 t 0 t 0 t d ; #.K.(.(.g.G , i 0 k i _._._._._.",
"_._._._._._.i t 0 t t , l ) ( t , 0 0 1 0 0 t 0 0 d t 0 0 t 0 t 0 t 0 0 d 0 t 0 t 0 t 0 0 0 0 0 & D ` ~ 1 5 i 0 t c i _._._._._.",
"_._._._._._.i M t 0 0 d t $ ; t t 0 i 0 d t 0 t 0 t 0 t d 0 t 0 t 0 d t w t 0 t 0 t 0 i d t 0 t i , @ , 1 t t 0 i t _._._._._._.",
"_._._._._._._.i m d i i t d d 0 i i i d d i i i t 0 t 0 i i i d d i t i t t 0 t i i i 0 d i i i t i l i i t 0 c c _._._._._._._.",
"_._._._._._._._.q i c c c c c m c c c m c c c c v v v v c c c m c v v v k v v v c c c m c c c c c c m c m c c i _._._._._._._._.",
"_._._._._._._._._._._.t t i q i t t i i i i t t t t l t t t t t i i t t t t t t t t i i i i t t t t i t t t _._._._._._._._._._.",
"_._._._._._._._._._._._._._._._._._._._._._._._._._._._._._._._._._._._._._._._._._._._._._._._._._._._._._._._._._._._._._._._."
};
